<svg height="297pt" viewBox="0 0 297 297.57825" width="297pt" xmlns="http://www.w3.org/2000/svg"><path d="m158.71875 42.605469c2.675781-2.671875 6.984375-2.703125 9.714844.03125l9.566406 9.5625c2.691406 2.691406 2.695312 7.050781.027344 9.71875l-115.820313 115.820312c-2.675781 2.675781-6.984375 2.703125-9.714843-.03125l-9.566407-9.5625c-2.691406-2.691406-2.695312-7.050781-.027343-9.714843zm0 0" fill="#d7e9ff"/><path d="m57.371094 186.574219c-3.652344 0-7.097656-1.4375-9.707032-4.042969l-9.566406-9.5625c-2.585937-2.589844-4.011718-6.023438-4.019531-9.679688-.003906-3.667968 1.40625-7.109374 3.996094-9.691406l115.820312-115.820312c2.585938-2.585938 6.019531-4.011719 9.65625-4.011719h.007813c3.65625 0 7.101562 1.4375 9.707031 4.042969l9.5625 9.5625c2.585937 2.585937 4.011719 6.027344 4.019531 9.683594.011719 3.664062-1.414062 7.105468-3.996094 9.691406l-115.816406 115.816406c-2.582031 2.585938-6.015625 4.011719-9.664062 4.011719zm101.347656-143.96875 4.828125 4.828125-115.820313 115.820312 9.59375 9.625 115.878907-115.789062zm0 0" fill="#0e65e5"/><path d="m124.929688 8.816406c2.671874-2.671875 6.984374-2.703125 9.714843.03125l9.566407 9.5625c2.691406 2.691406 2.691406 7.050782.027343 9.714844l-115.820312 115.820312c-2.675781 2.675782-6.984375 2.703126-9.71875-.027343l-9.5625-9.566407c-2.691407-2.691406-2.695313-7.050781-.027344-9.714843zm0 0" fill="#94c1ff" fill-rule="evenodd"/><path d="m23.585938 152.761719c-3.519532 0-7.035157-1.339844-9.714844-4.019531l-9.558594-9.5625c-5.347656-5.335938-5.367188-14.027344-.039062-19.363282l115.832031-115.828125c5.332031-5.328125 14.019531-5.316406 19.367187.027344l9.5625 9.566406c5.351563 5.351563 5.367188 14.039063.03125 19.371094l-115.820312 115.820313c-2.660156 2.660156-6.160156 3.988281-9.660156 3.988281zm106.171874-139.121094-115.824218 115.820313 9.59375 9.628906 115.882812-115.792969-9.589844-9.625zm-4.824218-4.824219h.066406zm0 0" fill="#0e65e5"/><path d="m192.507812 76.398438c2.675782-2.675782 6.984376-2.703126 9.71875.027343l9.5625 9.566407c2.691407 2.691406 2.695313 7.050781.03125 9.714843l-115.824218 115.820313c-2.671875 2.675781-6.980469 2.703125-9.714844-.027344l-9.5625-9.566406c-2.691406-2.691406-2.695312-7.050782-.03125-9.714844zm0 0" fill="#5c9eff"/><path d="m91.164062 220.367188c-.003906 0-.003906 0-.003906 0-3.65625 0-7.101562-1.4375-9.707031-4.046876l-9.5625-9.5625c-5.347656-5.339843-5.367187-14.03125-.039063-19.363281l115.832032-115.828125c5.328125-5.332031 14.015625-5.3125 19.367187.027344l9.5625 9.566406c2.585938 2.589844 4.011719 6.023438 4.027344 9.675782.011719 3.671874-1.40625 7.113281-3.996094 9.699218l-115.820312 115.816406c-2.578125 2.585938-6.011719 4.015626-9.660157 4.015626zm106.175782-139.144532-115.828125 115.824219 9.59375 9.621094 115.886719-115.789063-9.59375-9.628906zm-4.828125-4.828125h.066406zm0 0" fill="#0e65e5"/><path d="m226.300781 110.1875c2.671875-2.675781 6.984375-2.703125 9.714844.03125l9.5625 9.5625c2.691406 2.691406 2.695313 7.050781.03125 9.714844l-115.820313 115.824218c-2.675781 2.671876-6.984374 2.703126-9.71875-.03125l-9.5625-9.5625c-2.691406-2.691406-2.695312-7.050781-.027343-9.71875zm0 0" fill="#94c1ff" fill-rule="evenodd"/><path d="m124.953125 254.15625c-3.652344 0-7.101563-1.433594-9.707031-4.035156l-9.566406-9.570313c-2.585938-2.589843-4.015626-6.023437-4.019532-9.675781-.007812-3.671875 1.40625-7.113281 3.992188-9.695312l115.820312-115.816407-.007812.003907.007812-.003907c5.195313-5.195312 14.179688-5.167969 19.375.03125l9.558594 9.558594c2.589844 2.589844 4.015625 6.027344 4.019531 9.683594.015625 3.667969-1.410156 7.109375-3.992187 9.691406l-115.820313 115.816406c-2.589843 2.585938-6.015625 4.011719-9.660156 4.011719zm106.171875-139.140625-115.816406 115.820313 9.589844 9.628906 115.878906-115.796875-9.589844-9.625zm-4.824219-4.824219h.066407zm0 0" fill="#0e65e5"/><path d="m144.269531 259.796875c-2.675781 2.675781-2.644531 7.042969.054688 9.742187l14.992187 14.992188c2.707032 2.703125 8.035156 4.933594 11.808594 4.972656l113.082031 1.25c3.816407.042969 6.875-3.0625 6.832031-6.753906l-1.339843-113.351562c-.042969-3.769532-2.273438-9.019532-4.957031-11.707032l-14.933594-14.929687c-2.691406-2.695313-7.054688-2.699219-9.71875-.035157zm0 0" fill="#5c9eff"/><g fill="#0e65e5"><path d="m284.285156 297.578125c-.050781 0-.105468 0-.160156 0l-113.074219-1.246094c-5.625-.066406-12.59375-3-16.566406-6.976562l-14.984375-14.988281c-2.605469-2.605469-4.046875-6.070313-4.046875-9.753907.007813-3.652343 1.417969-7.078125 4-9.648437l115.8125-115.8125c2.566406-2.570313 5.992187-3.988282 9.644531-3.992188h.007813c3.671875 0 7.128906 1.429688 9.71875 4.027344l14.925781 14.929688c3.96875 3.960937 6.894531 10.878906 6.960938 16.449218l1.339843 113.351563c.046875 3.585937-1.390625 7.113281-3.953125 9.671875-2.570312 2.574218-5.984375 3.988281-9.625 3.988281zm-135.164062-32.96875 15.023437 15.097656c1.421875 1.421875 5.046875 2.949219 7.0625 2.972657l113.074219 1.246093-1.40625-113.195312c-.027344-1.96875-1.546875-5.546875-2.960938-6.960938l-14.925781-14.929687zm-4.847656-4.808594 4.820312 4.832031s.003906-.003906.003906-.007812zm0 0h.066406zm0 0"/><path d="m160.136719 279.867188-5.589844-5.589844c-6.453125-6.453125-6.453125-16.917969 0-23.371094l98.035156-98.035156c6.453125-6.457032 16.917969-6.457032 23.375 0l5.585938 5.589844c6.457031 6.453124 6.457031 16.917968 0 23.371093l-98.03125 98.035157c-6.457031 6.457031-16.921875 6.457031-23.375 0zm0 0"/><path d="m171.820312 291.523438c-5.980468 0-11.960937-2.277344-16.515624-6.824219v-.003907l-5.585938-5.589843c-9.105469-9.105469-9.105469-23.917969 0-33.027344l98.035156-98.035156c9.105469-9.097657 23.925782-9.097657 33.03125-.003907l5.585938 5.59375c9.105468 9.105469 9.105468 23.921876 0 33.027344l-98.03125 98.035156c-4.554688 4.550782-10.535156 6.828126-16.519532 6.828126zm-6.863281-16.480469c3.796875 3.78125 9.949219 3.773437 13.726563-.003907l98.035156-98.035156c1.832031-1.832031 2.839844-4.269531 2.839844-6.859375 0-2.59375-1.007813-5.027343-2.839844-6.859375l-5.585938-5.589844c-3.792968-3.789062-9.945312-3.777343-13.726562.003907l-98.035156 98.03125c-1.832032 1.832031-2.839844 4.269531-2.839844 6.859375 0 2.597656 1.007812 5.027344 2.839844 6.863281zm0 0"/></g><path d="m256.90625 234.890625c-3.773438 0-6.828125-3.054687-6.828125-6.824219v-27.308594c0-3.769531 3.054687-6.824218 6.828125-6.824218s6.824219 3.054687 6.824219 6.824218v27.308594c0 3.769532-3.050781 6.824219-6.824219 6.824219zm0 0" fill="#fff"/><path d="m270.558594 221.238281h-27.304688c-3.773437 0-6.828125-3.054687-6.828125-6.824219 0-3.773437 3.054688-6.828124 6.828125-6.828124h27.304688c3.773437 0 6.828125 3.054687 6.828125 6.828124 0 3.769532-3.054688 6.824219-6.828125 6.824219zm0 0" fill="#fff"/></svg>